HIERARCHY
ROOT ui
{
	 OFFSET 0 0 0
	 CHANNELS 3 XPosition YPosition Z Position
	 EndSite
	 {
	 OFFSET 0 -1 0
	 }
}
ROOT li
{
	 OFFSET 0 0 0
	 CHANNELS 3 XPosition YPosition Z Position
	 EndSite
	 {
	 OFFSET 0 -1 0
	 }
}
ROOT ul
{
	 OFFSET 0 0 0
	 CHANNELS 3 XPosition YPosition Z Position
	 EndSite
	 {
	 OFFSET 0 -1 0
	 }
}
ROOT ll
{
	 OFFSET 0 0 0
	 CHANNELS 3 XPosition YPosition Z Position
	 EndSite
	 {
	 OFFSET 0 -1 0
	 }
}
ROOT tt
{
	 OFFSET 0 0 0
	 CHANNELS 3 XPosition YPosition Z Position
	 EndSite
	 {
	 OFFSET 0 -1 0
	 }
}
ROOT tb
{
	 OFFSET 0 0 0
	 CHANNELS 3 XPosition YPosition Z Position
	 EndSite
	 {
	 OFFSET 0 -1 0
	 }
}
ROOT td
{
	 OFFSET 0 0 0
	 CHANNELS 3 XPosition YPosition Z Position
	 EndSite
	 {
	 OFFSET 0 -1 0
	 }
}
ROOT v
{
	 OFFSET 0 0 0
	 CHANNELS 3 XPosition YPosition Z Position
	 EndSite
	 {
	 OFFSET 0 -1 0
	 }
}
ROOT bn
{
	 OFFSET 0 0 0
	 CHANNELS 3 XPosition YPosition Z Position
	 EndSite
	 {
	 OFFSET 0 -1 0
	 }
}
MOTION
Frames: 32
Frame Time: 0.002
0.0030457210540771485	-2.8931701183319093E-4	0		0.47241610717773436	-2.3447236328125	0		-0.942830810546875	0.017446113586425782	0		-0.727110595703125	-2.1796396484375	0		1.3454013671875	-0.6177116088867187	0		3.1534404296875	-0.08038497161865234	0		4.7259853515625	-0.1369090118408203	0		5.5433701171875	0.11755371856689453	0		-0.26286355590820315	5.858416015625	0		
0.01000704288482666	0.005959600925445557	0		0.44939761352539065	-2.338194091796875	0		-0.999866943359375	0.02427790069580078	0		-0.7841566162109375	-2.175805908203125	0		1.353275390625	-0.6214606323242188	0		3.153338134765625	-0.08104579162597657	0		4.718939453125	-0.1314928283691406	0		5.5432568359375	0.11591219329833985	0		-0.26204144287109377	5.85471875	0		
0.01696933364868164	0.01221128273010254	0		0.4823543701171875	-2.334179443359375	0		-1.005922607421875	0.028643495559692384	0		-0.7541730346679687	-2.168771240234375	0		1.359241455078125	-0.6151917114257812	0		3.199271484375	-0.07813478088378906	0		4.7278193359375	-0.13423104858398438	0		5.54721875	0.1222246322631836	0		-0.24509609985351563	5.86287646484375	0		
0.009799212455749511	0.004603342056274414	0		0.4672681274414062	-2.333712158203125	0		-1.0160189819335939	0.0290585880279541	0		-0.7962957153320313	-2.172059814453125	0		1.34812939453125	-0.6167574462890625	0		3.153131103515625	-0.0823701171875	0		4.71873291015625	-0.13280125427246095	0		5.55203857421875	0.11352925109863281	0		-0.263281005859375	5.85636865234375	0		
0.013718013763427734	0.007910333156585693	0		0.49413705444335937	-2.336615478515625	0		-1.0192473754882811	0.01642795181274414	0		-0.771381103515625	-2.169948486328125	0		1.3449857177734375	-0.6203820190429687	0		3.153013427734375	-0.08301752471923828	0		4.7255595703125	-0.1395086212158203	0		5.5429296875	0.11397127532958984	0		-0.2974779052734375	5.849025390625	0		
-0.050511577606201175	-0.0021345219612121584	0		0.44896612548828124	-2.340834716796875	0		-1.014360107421875	0.018745079040527343	0		-0.798562255859375	-2.1753359375	0		1.3448466796875	-0.6210144653320312	0		3.157808837890625	-0.09069246673583985	0		4.71442041015625	-0.14003364562988282	0		5.5477158203125	0.10530066680908202	0		-0.2625840148925781	5.8530673828125	0		
0.009369226455688476	0.002702048063278198	0		0.47577850341796873	-2.343693115234375	0		-1.006458740234375	0.026058897018432618	0		-0.7847587890625	-2.179076416015625	0		1.3526478271484375	-0.6246962890625	0		3.168700927734375	-0.08439935302734375	0		4.72322998046875	-0.1427191619873047	0		5.5426171875	0.11274504852294921	0		-0.28271868896484376	5.857640625	0		
-0.03980120468139649	0.006569526195526123	0		0.45264056396484376	-2.33706396484375	0		-1.0066681518554688	0.025472793579101562	0		-0.801796142578125	-2.16150634765625	0		1.3524400634765625	-0.6252763671875	0		3.15249267578125	-0.08482752227783204	0		4.7180947265625	-0.1352449951171875	0		5.5513984375	0.11109276580810547	0		-0.24888911437988281	5.8627431640625	0		
0.00891189479827881	0.0015638550519943236	0		0.52928955078125	-2.35032470703125	0		-1.006916259765625	0.02491348648071289	0		-0.760174072265625	-2.177450439453125	0		1.3472503662109374	-0.6197791748046875	0		3.152244873046875	-0.0853678436279297	0		4.7288466796875	-0.13587940979003907	0		5.55114990234375	0.11056338500976562	0		-0.11496706390380859	5.882953125	0		
0.008627253532409668	0.001039064049720764	0		0.46614459228515626	-2.337266845703125	0		-1.02122802734375	0.02151001739501953	0		-0.735416015625	-2.175211181640625	0		1.34394287109375	-0.6232662963867187	0		3.156896484375	-0.09291497802734375	0		4.72450830078125	-0.14233212280273438	0		5.5418828125	0.11216242218017577	0		-0.26457412719726564	5.852798828125	0		
0.0012449300289154052	-0.00639079999923706	0		0.4908041076660156	-2.34298583984375	0		-1.0155927734375	0.015949732780456544	0		-0.8096622314453125	-2.170033935546875	0		1.3436312255859375	-0.62374658203125	0		3.1516435546875	-0.08633038330078124	0		4.7172470703125	-0.1367124786376953	0		5.54155419921875	0.11072674560546875	0		-0.26495458984375	5.85230126953125	0		
-0.04100155258178711	0.004530197143554688	0		0.4564062194824219	-2.352130615234375	0		-1.0078692016601563	0.02339821434020996	0		-0.7511213989257812	-2.18604931640625	0		1.3512626953125	-0.6272649536132813	0		3.156231201171875	-0.09379602813720703	0		4.721826171875	-0.14515638732910155	0		5.54120361328125	0.11033976745605469	0		-0.2843565673828125	5.85500830078125	0		
0.014647676467895507	0.006584415912628174	0		0.4801888732910156	-2.339775390625	0		-1.008245361328125	0.022948551177978515	0		-0.7933297119140625	-2.17211083984375	0		1.3569615478515624	-0.620729248046875	0		3.18095654296875	-0.08340339660644532	0		4.72550732421875	-0.13954438781738282	0		5.5448896484375	0.1169658203125	0		-0.24978875732421876	5.85925048828125	0		
0.011224735260009765	0.0032114319801330566	0		0.4648517761230469	-2.339029296875	0		-1.0086414184570311	0.022526762008666993	0		-0.7347007446289062	-2.17506689453125	0		1.3505152587890625	-0.6280467529296875	0		3.150527587890625	-0.0874638671875	0		4.7222060546875	-0.12981991577148438	0		5.54042822265625	0.10971719360351563	0		-0.2653968811035156	5.8489814453125	0		
0.006780371189117431	-0.0011218650341033936	0		0.47342825317382814	-2.3474697265625	0		-1.0090499877929688	0.022131692886352538	0		-0.811024658203125	-2.171762939453125	0		1.3451776123046875	-0.6223383178710937	0		3.15012158203125	-0.08775627899169922	0		4.71167431640625	-0.14398187255859374	0		5.540017578125	0.1094837646484375	0		-0.13273619079589843	5.871392578125	0		
-0.04662263488769531	1.8391000106930734E-5	0		0.47106289672851565	-2.349779052734375	0		-1.0175372314453126	0.013834719657897948	0		-0.7744057006835937	-2.175463134765625	0		1.34669921875	-0.6316588134765625	0		3.150600830078125	-0.10001604461669922	0		4.722263671875	-0.144288330078125	0		5.53552734375	0.10133748626708984	0		-0.30156546020507813	5.84457421875	0		
0.005953022003173828	-0.0017764450311660766	0		0.4457623596191406	-2.345851806640625	0		-1.0098787231445312	0.021415525436401368	0		-0.799775146484375	-2.178575439453125	0		1.3552789306640625	-0.6350107421875	0		3.14525439453125	-0.09318389129638673	0		4.7198369140625	-0.14643254089355467	0		5.53918310546875	0.1091646499633789	0		-0.30217507934570315	5.84325048828125	0		
0.009587747573852539	0.0018993149995803833	0		0.476469482421875	-2.34340380859375	0		-1.0102807006835937	0.021091739654541017	0		-0.7580743408203126	-2.1762705078125	0		1.351990234375	-0.6252246704101563	0		3.153838134765625	-0.09544243621826172	0		4.71944091796875	-0.1465546417236328	0		5.5387783203125	0.1090714111328125	0		-0.28867440795898436	5.8548251953125	0		
0.009210582733154296	0.0016354340314865112	0		0.47415512084960937	-2.346631591796875	0		-1.0106585693359376	0.020788877487182618	0		-0.8103212890625	-2.17109716796875	0		1.348601318359375	-0.62941015625	0		3.153464599609375	-0.09558614349365234	0		4.7300693359375	-0.14673721313476562	0		5.5473876953125	0.10793812561035156	0		-0.25523178100585936	5.85924462890625	0		
0.004833015918731689	-0.0025703070163726805	0		0.5148994750976562	-2.348220458984375	0		-1.0110014038085937	0.020505144119262696	0		-0.7386390380859374	-2.179015625	0		1.348285400390625	-0.6295964965820312	0		3.153126708984375	-0.09569798278808593	0		4.72480517578125	-0.1387396240234375	0		5.547041015625	0.10792510986328124	0		-0.13571316528320312	5.86991943359375	0		
0.0045354728698730465	-0.002791662931442261	0		0.4696805114746094	-2.35101904296875	0		-1.0112999267578124	0.020238983154296876	0		-0.7658839111328125	-2.184029541015625	0		1.3449888916015624	-0.6327318115234375	0		3.147895751953125	-0.08873631286621093	0		4.725388671875	-0.15276113891601562	0		5.54673876953125	0.10794820404052734	0		-0.2714510498046875	5.849892578125	0		
0.004289781093597412	-0.0029940381050109865	0		0.4715609130859375	-2.3492177734375	0		-1.0055911254882812	0.014936816215515137	0		-0.7910543823242188	-2.18704638671875	0		1.3537454833984375	-0.6359517211914063	0		3.152591796875	-0.09583740234375	0		4.714150390625	-0.15264814758300782	0		5.5374970703125	0.1090814208984375	0		-0.2899487609863281	5.8518369140625	0		
0.011163485527038575	0.0037597949504852295	0		0.45056427001953125	-2.340195556640625	0		-1.0017445678710937	0.01866938591003418	0		-0.759052001953125	-2.177550048828125	0		1.359649169921875	-0.629125244140625	0		3.17750439453125	-0.0850931396484375	0		4.7220751953125	-0.14068052673339843	0		5.551365234375	0.11603539276123047	0		-0.28942208862304686	5.8506298828125	0		
0.008012194633483887	6.195279955863953E-4	0		0.49844357299804687	-2.3527607421875	0		-1.0178173217773439	0.02459440803527832	0		-0.8031156616210937	-2.1823681640625	0		1.347545654296875	-0.6301228637695313	0		3.152288330078125	-0.09589031219482422	0		4.71790478515625	-0.14658827209472655	0		5.53717431640625	0.10925454711914062	0		-0.27184304809570314	5.84829150390625	0		
0.007952576160430908	4.692780077457428E-4	0		0.46259140014648437	-2.3415751953125	0		-1.0119218139648438	0.019344030380249025	0		-0.7390491943359375	-2.180113525390625	0		1.3444896240234374	-0.63318408203125	0		3.152233154296875	-0.09589309692382812	0		4.719869140625	-0.14453511047363282	0		5.537109375	0.10936360168457031	0		-0.2721769104003906	5.8481279296875	0		
0.003924453020095825	-0.003630749940872192	0		0.47163504028320313	-2.349766845703125	0		-1.0119163208007813	0.01916269302368164	0		-0.804984130859375	-2.1847109375	0		1.3534986572265626	-0.6363356323242187	0		3.152243896484375	-0.0958844223022461	0		4.7088828125	-0.1443596954345703	0		5.53711083984375	0.10948110961914062	0		-0.2724374084472656	5.84798046875	0		
0.00803001308441162	2.141440063714981E-4	0		0.4448270874023437	-2.347634521484375	0		-1.0118460693359375	0.018997777938842775	0		-0.8028004150390625	-2.182884033203125	0		1.3535975341796875	-0.6363971557617187	0		3.163379150390625	-0.0889623031616211	0		4.724890625	-0.1524120330810547	0		5.53717724609375	0.10960246276855469	0		-0.3066723327636719	5.84214111328125	0		
0.011188536643981934	0.003081707000732422	0		0.4760813903808594	-2.344989013671875	0		-1.0076883544921875	0.02181471824645996	0		-0.808474365234375	-2.17097314453125	0		1.3567908935546875	-0.6324741821289063	0		3.1524560546875	-0.09584428405761719	0		4.71808154296875	-0.14626438903808595	0		5.5373056640625	0.10972382354736328	0		-0.2926865234375	5.85290087890625	0		
0.008352831840515136	1.3894000090658664E-5	0		0.4633873596191406	-2.341953857421875	0		-1.0115247192382812	0.01871632957458496	0		-0.738280517578125	-2.180695068359375	0		1.3539710693359375	-0.6364902954101562	0		3.16964892578125	-0.09596227264404297	0		4.7202939453125	-0.1441943817138672	0		5.546482421875	0.10876566314697265	0		-0.29272128295898436	5.8527958984375	0		
0.008592569351196289	-6.774500012397766E-5	0		0.49961517333984373	-2.35332470703125	0		-1.017242919921875	0.023649415969848632	0		-0.81191845703125	-2.175174560546875	0		1.3482845458984376	-0.6304735717773438	0		3.152892822265625	-0.09578764343261718	0		4.725470703125	-0.1521515350341797	0		5.541794921875	0.11792208099365234	0		-0.27372323608398436	5.8485419921875	0		
0.004839073181152344	-0.004104505062103272	0		0.46406585693359376	-2.342075439453125	0		-1.0110060424804688	0.018494884490966798	0		-0.7406296997070313	-2.18287255859375	0		1.3515087890625	-0.639526123046875	0		3.1491337890625	-0.10072271728515625	0		4.725755859375	-0.15206980895996094	0		5.53800390625	0.11006433868408202	0		-0.273632080078125	5.84846240234375	0		
0.009182171821594238	-1.992879956960678E-4	0		0.44639382934570315	-2.347970703125	0		-1.0066719970703124	0.02137040138244629	0		-0.7913221435546876	-2.19052490234375	0		1.357895751953125	-0.6325984497070313	0		3.15348828125	-0.09572550201416016	0		4.71912060546875	-0.14593368530273437	0		5.53831005859375	0.1101654052734375	0		-0.25841851806640626	5.8572666015625	0		
